<?xml version="1.0" encoding="UTF-8"?>
<!-- Uploaded to: SVG Repo, www.svgrepo.com, Generator: SVG Repo Mixer Tools -->
<svg width="800px" height="800px" viewBox="0 0 20 20" version="1.1" xmlns="http://www.w3.org/2000/svg" xmlns:xlink="http://www.w3.org/1999/xlink">
    <title>image / 29 - image, brightness, sun, sunny, weather icon</title>
    <g id="Free-Icons" stroke="none" stroke-width="1" fill="none" fill-rule="evenodd" stroke-linecap="round" stroke-linejoin="round">
        <g transform="translate(-451.000000, -526.000000)" id="Group" stroke="#000000" stroke-width="2">
            <g transform="translate(449.000000, 524.000000)" id="Shape">
                <path d="M12,15.5 C10.0670034,15.5 8.5,13.9329966 8.5,12 C8.5,10.0670034 10.0670034,8.5 12,8.5 C13.9329966,8.5 15.5,10.0670034 15.5,12 C15.5,13.9329966 13.9329966,15.5 12,15.5 Z">
</path>
                <line x1="12" y1="19" x2="12" y2="21">
</line>
                <line x1="5" y1="12" x2="3" y2="12">
</line>
                <line x1="21" y1="12" x2="19" y2="12">
</line>
                <line x1="12" y1="3" x2="12" y2="5">
</line>
                <line x1="7.3016885" y1="17.0538957" x2="5.88747494" y2="18.4681092">
</line>
                <line x1="7.3016885" y1="7.15440072" x2="5.88747494" y2="5.74018716">
</line>
                <line x1="18.615397" y1="18.4681092" x2="17.2011834" y2="17.0538957">
</line>
                <line x1="18.615397" y1="5.74018716" x2="17.2011834" y2="7.15440072">
</line>
            </g>
        </g>
    </g>
</svg>