<?xml version="1.0" encoding="utf-8"?><!-- Uploaded to: SVG Repo, www.svgrepo.com, Generator: SVG Repo Mixer Tools -->
<svg version="1.1" id="Uploaded to svgrepo.com" xmlns="http://www.w3.org/2000/svg" xmlns:xlink="http://www.w3.org/1999/xlink" 
	 width="800px" height="800px" viewBox="0 0 32 32" xml:space="preserve">
<style type="text/css">
	.stone_een{fill:#111918;}
	.st0{fill:#0B1719;}
</style>
<path class="stone_een" d="M6,28c0,1.105-0.895,2-2,2c-1.105,0-2-0.895-2-2c0-1.105,0.895-2,2-2C5.105,26,6,26.895,6,28z M1,30
	c-0.552,0-1,0.448-1,1c0,0.552,0.448,1,1,1s1-0.448,1-1C2,30.448,1.552,30,1,30z M27.576,20.81c0.256,1.805-0.288,3.701-1.676,5.089
	c-1.167,1.167-2.693,1.738-4.222,1.738c-0.29,0-0.58-0.021-0.867-0.061C19.716,29.044,17.972,30,16,30s-3.716-0.956-4.81-2.424
	c-0.288,0.041-0.577,0.061-0.867,0.061c-1.529,0-3.055-0.571-4.222-1.738c-1.388-1.388-1.933-3.285-1.676-5.089
	C2.956,19.716,2,17.972,2,16s0.956-3.716,2.424-4.81C4.168,9.385,4.713,7.489,6.101,6.1c1.167-1.167,2.693-1.738,4.222-1.738
	c0.29,0,0.58,0.021,0.867,0.061C12.284,2.956,14.028,2,16,2s3.716,0.956,4.81,2.424c0.288-0.041,0.577-0.061,0.867-0.061
	c1.529,0,3.055,0.571,4.222,1.738c1.388,1.388,1.933,3.285,1.676,5.089C29.044,12.284,30,14.028,30,16S29.044,19.716,27.576,20.81z
	 M20,17.5c0-0.276-0.224-0.5-0.5-0.5h-7c-0.276,0-0.5,0.224-0.5,0.5c0,0.276,0.224,0.5,0.5,0.5h7C19.776,18,20,17.776,20,17.5z
	 M20,15.5c0-0.276-0.224-0.5-0.5-0.5h-7c-0.276,0-0.5,0.224-0.5,0.5c0,0.276,0.224,0.5,0.5,0.5h7C19.776,16,20,15.776,20,15.5z
	 M20,13.5c0-0.276-0.224-0.5-0.5-0.5h-7c-0.276,0-0.5,0.224-0.5,0.5c0,0.276,0.224,0.5,0.5,0.5h7C19.776,14,20,13.776,20,13.5z"/>
</svg>